<svg height="1080pt" preserveAspectRatio="xMidYMid meet" viewBox="0 0 1080 1080" width="1080pt" xmlns="http://www.w3.org/2000/svg"><path d="m5271 8554c-254-68-412-336-346-589 44-168 183-312 343-354l42-12v-263c0-231-2-265-16-270-9-3-57-6-107-6-51 0-173-9-272-20-979-110-1853-510-2481-1135-203-203-390-435-401-498-8-49 35-97 87-97 46 0 59 11 140 120 98 132 224 273 343 384 59 55 112 103 117 104 6 2 10-296 10-817v-821l-59-119c-56-110-62-119-93-124-18-3-89-14-158-23-110-16-128-21-152-45-19-19-28-38-28-61 0-29 15-48 119-153l119-120-24-140c-30-179-31-205 0-234 49-46 80-40 233 40l139 73 138-73c152-80 184-86 232-40 31 29 31 64-1 239l-24 135 103 105c57 58 111 116 120 130 22 33 20 72-4 103-23 29-29 31-175 51-60 9-124 18-142 21-29 5-37 16-93 122l-60 117 2 910 3 910 115 79c158 108 303 193 479 282 141 70 386 175 410 175 8 0 11-141 11-490v-489l-43-30c-109-74-218-224-261-356-57-178-31-398 66-563 44-76 178-208 258-255 266-155 619-109 835 108 75 76 145 184 145 225 0 38-35 88-67 96-19 5-47 0-88-15-138-53-215-61-324-36-257 61-433 319-394 575 6 39 22 90 35 113l23 42 3 571 3 572 22 5c12 3 74 19 137 36 272 72 559 116 903 137l107 6v-1801-1801l-62-118c-34-64-62-118-63-120-2-2-71-16-156-31-136-25-155-32-176-55-46-54-36-77 98-211l120-122-27-155c-15-89-24-166-20-182 7-30 59-66 94-66 13 0 86 32 161 72l138 72 140-72c78-40 152-72 166-72 27 0 71 31 88 62 8 15 4 58-17 179l-27 159 111 113c121 123 140 154 121 199-17 43-49 54-214 78-83 12-151 22-151 23-1 1-29 56-63 123l-61 121v1796 1797h63c225 0 684-68 925-136l52-15v-955-954l-59-119-60-118-128-17c-168-23-198-31-222-63-43-53-32-75 99-207l120-122-25-139c-31-177-31-200-1-230 47-47 66-44 227 35l147 74 142-73c119-61 147-72 174-67 33 6 68 36 79 68 4 10-5 81-18 158-14 77-25 150-25 162 0 15 39 62 115 138 105 107 115 120 115 154 0 27-7 43-25 60-26 24-37 27-256 57l-86 12-61 123-62 124v925c0 509 1 925 3 925s41-13 88-29c306-104 668-284 924-458l100-68 3-973 2-972-61-123c-34-67-62-123-63-124 0-1-68-11-151-23-82-12-161-28-176-36-34-17-52-65-38-102 5-15 60-77 121-139l111-112-27-159c-23-133-25-163-15-186 14-30 56-56 89-56 12 0 84 32 161 71l140 71 122-62c67-35 126-67 131-71 32-29 130 10 142 56 3 14-6 95-21 181l-27 156 115 117c64 64 118 128 122 142 9 36-9 76-43 93-21 11-284 56-327 56-3 0-32 54-65 120l-60 120 2 901 3 901 147-142c154-148 254-260 369-417 78-105 101-118 158-87 46 25 65 62 50 101-29 77-251 344-435 523-281 273-584 482-974 675-290 142-570 244-811 295-320 68-800 140-938 140-36 0-76 3-88 6l-23 6v263 263l53 17c164 54 289 185 332 350 65 252-96 523-350 590-73 19-182 18-254-1zm254-188c59-27 106-72 143-134 20-36 27-62 30-128 4-72 1-89-20-135-52-111-144-171-270-177-65-4-85 0-130 20-76 35-113 71-148 142-68 138-27 302 97 388 89 61 199 70 298 24zm-1636-3106c3-97 76-274 149-361 130-157 327-259 502-259h65l-25-20c-39-30-147-61-235-67-150-10-279 39-391 151-160 160-200 392-103 593 22 45 24 46 30 23 4-14 7-41 8-60zm2781-748c44-82 68-100 155-113 107-16 106-13 34-85-60-61-64-67-64-112 0-26 4-73 8-105l9-58-81 40c-44 23-90 41-101 41s-56-18-100-40-81-40-83-40 2 37 10 83c7 45 11 93 8 106-4 13-33 52-67 87-67 70-69 68 35 83 38 5 80 17 93 26 14 9 41 49 61 90 21 41 39 72 42 69s22-35 41-72zm-3746-620c16-12 49-22 88-26 120-13 118-9 43-86-62-65-65-70-64-117 0-26 4-70 9-98 4-27 7-51 5-53s-35 13-74 32c-41 21-85 36-106 36s-65-15-106-36c-39-19-73-34-75-32-2 3 1 31 6 64 20 119 17 128-55 204-74 76-76 72 40 85 80 10 112 35 155 124l34 72 38-74c20-41 48-84 62-95zm5117-121c17-11 56-22 87-26 102-11 101-10 38-74-70-70-77-95-61-197 7-43 11-80 10-82-2-2-36 13-76 34-94 47-124 47-218 0l-74-38 7 33c3 18 9 63 12 100l7 68-67 69c-45 47-62 71-53 75 7 3 44 8 81 12 85 9 114 33 163 129l36 70 39-77c25-52 49-84 69-96zm-2601-801c19-39 41-77 50-85 8-7 44-18 80-24 125-22 120-14 52-84-67-71-77-98-62-176 20-107 22-106-72-60-96 46-108 45-206-9l-64-35 8 64c18 133 16 142-55 213-73 73-77 67 48 86 77 11 105 34 146 120 16 33 31 60 35 60 3 0 21-32 40-70z" transform="matrix(.1 0 0 -.1 0 1080)"/></svg>